G04 #@! TF.GenerationSoftware,KiCad,Pcbnew,(5.1.5)-3*
G04 #@! TF.CreationDate,2020-07-01T12:57:24+02:00*
G04 #@! TF.ProjectId,GarageDoorControl,47617261-6765-4446-9f6f-72436f6e7472,rev?*
G04 #@! TF.SameCoordinates,Original*
G04 #@! TF.FileFunction,Soldermask,Bot*
G04 #@! TF.FilePolarity,Negative*
%FSLAX46Y46*%
G04 Gerber Fmt 4.6, Leading zero omitted, Abs format (unit mm)*
G04 Created by KiCad (PCBNEW (5.1.5)-3) date 2020-07-01 12:57:24*
%MOMM*%
%LPD*%
G04 APERTURE LIST*
%ADD10C,0.100000*%
G04 APERTURE END LIST*
D10*
G36*
X246035787Y-141585462D02*
G01*
X246035790Y-141585463D01*
X246035789Y-141585463D01*
X246682029Y-141853144D01*
X247263631Y-142241758D01*
X247758242Y-142736369D01*
X248146856Y-143317971D01*
X248336135Y-143774932D01*
X248414538Y-143964213D01*
X248551000Y-144650256D01*
X248551000Y-145349744D01*
X248414538Y-146035787D01*
X248414537Y-146035789D01*
X248146856Y-146682029D01*
X247758242Y-147263631D01*
X247263631Y-147758242D01*
X246682029Y-148146856D01*
X246466816Y-148236000D01*
X246035787Y-148414538D01*
X245349744Y-148551000D01*
X244650256Y-148551000D01*
X243964213Y-148414538D01*
X243533184Y-148236000D01*
X243317971Y-148146856D01*
X242736369Y-147758242D01*
X242241758Y-147263631D01*
X241853144Y-146682029D01*
X241585463Y-146035789D01*
X241585462Y-146035787D01*
X241449000Y-145349744D01*
X241449000Y-144650256D01*
X241585462Y-143964213D01*
X241663865Y-143774932D01*
X241853144Y-143317971D01*
X242241758Y-142736369D01*
X242736369Y-142241758D01*
X243317971Y-141853144D01*
X243964211Y-141585463D01*
X243964210Y-141585463D01*
X243964213Y-141585462D01*
X244650256Y-141449000D01*
X245349744Y-141449000D01*
X246035787Y-141585462D01*
G37*
G36*
X96035787Y-141585462D02*
G01*
X96035790Y-141585463D01*
X96035789Y-141585463D01*
X96682029Y-141853144D01*
X97263631Y-142241758D01*
X97758242Y-142736369D01*
X98146856Y-143317971D01*
X98336135Y-143774932D01*
X98414538Y-143964213D01*
X98551000Y-144650256D01*
X98551000Y-145349744D01*
X98414538Y-146035787D01*
X98414537Y-146035789D01*
X98146856Y-146682029D01*
X97758242Y-147263631D01*
X97263631Y-147758242D01*
X96682029Y-148146856D01*
X96466816Y-148236000D01*
X96035787Y-148414538D01*
X95349744Y-148551000D01*
X94650256Y-148551000D01*
X93964213Y-148414538D01*
X93533184Y-148236000D01*
X93317971Y-148146856D01*
X92736369Y-147758242D01*
X92241758Y-147263631D01*
X91853144Y-146682029D01*
X91585463Y-146035789D01*
X91585462Y-146035787D01*
X91449000Y-145349744D01*
X91449000Y-144650256D01*
X91585462Y-143964213D01*
X91663865Y-143774932D01*
X91853144Y-143317971D01*
X92241758Y-142736369D01*
X92736369Y-142241758D01*
X93317971Y-141853144D01*
X93964211Y-141585463D01*
X93964210Y-141585463D01*
X93964213Y-141585462D01*
X94650256Y-141449000D01*
X95349744Y-141449000D01*
X96035787Y-141585462D01*
G37*
G36*
X148636000Y-148236000D02*
G01*
X145534000Y-148236000D01*
X145534000Y-145134000D01*
X148636000Y-145134000D01*
X148636000Y-148236000D01*
G37*
G36*
X164887585Y-145163802D02*
G01*
X165037410Y-145193604D01*
X165319674Y-145310521D01*
X165573705Y-145480259D01*
X165789741Y-145696295D01*
X165959479Y-145950326D01*
X166076396Y-146232590D01*
X166136000Y-146532240D01*
X166136000Y-146837760D01*
X166076396Y-147137410D01*
X165959479Y-147419674D01*
X165789741Y-147673705D01*
X165573705Y-147889741D01*
X165319674Y-148059479D01*
X165037410Y-148176396D01*
X164887585Y-148206198D01*
X164737761Y-148236000D01*
X164432239Y-148236000D01*
X164282415Y-148206198D01*
X164132590Y-148176396D01*
X163850326Y-148059479D01*
X163596295Y-147889741D01*
X163380259Y-147673705D01*
X163210521Y-147419674D01*
X163093604Y-147137410D01*
X163034000Y-146837760D01*
X163034000Y-146532240D01*
X163093604Y-146232590D01*
X163210521Y-145950326D01*
X163380259Y-145696295D01*
X163596295Y-145480259D01*
X163850326Y-145310521D01*
X164132590Y-145193604D01*
X164282415Y-145163802D01*
X164432239Y-145134000D01*
X164737761Y-145134000D01*
X164887585Y-145163802D01*
G37*
G36*
X172387585Y-145163802D02*
G01*
X172537410Y-145193604D01*
X172819674Y-145310521D01*
X173073705Y-145480259D01*
X173289741Y-145696295D01*
X173459479Y-145950326D01*
X173576396Y-146232590D01*
X173636000Y-146532240D01*
X173636000Y-146837760D01*
X173576396Y-147137410D01*
X173459479Y-147419674D01*
X173289741Y-147673705D01*
X173073705Y-147889741D01*
X172819674Y-148059479D01*
X172537410Y-148176396D01*
X172387585Y-148206198D01*
X172237761Y-148236000D01*
X171932239Y-148236000D01*
X171782415Y-148206198D01*
X171632590Y-148176396D01*
X171350326Y-148059479D01*
X171096295Y-147889741D01*
X170880259Y-147673705D01*
X170710521Y-147419674D01*
X170593604Y-147137410D01*
X170534000Y-146837760D01*
X170534000Y-146532240D01*
X170593604Y-146232590D01*
X170710521Y-145950326D01*
X170880259Y-145696295D01*
X171096295Y-145480259D01*
X171350326Y-145310521D01*
X171632590Y-145193604D01*
X171782415Y-145163802D01*
X171932239Y-145134000D01*
X172237761Y-145134000D01*
X172387585Y-145163802D01*
G37*
G36*
X157387585Y-145163802D02*
G01*
X157537410Y-145193604D01*
X157819674Y-145310521D01*
X158073705Y-145480259D01*
X158289741Y-145696295D01*
X158459479Y-145950326D01*
X158576396Y-146232590D01*
X158636000Y-146532240D01*
X158636000Y-146837760D01*
X158576396Y-147137410D01*
X158459479Y-147419674D01*
X158289741Y-147673705D01*
X158073705Y-147889741D01*
X157819674Y-148059479D01*
X157537410Y-148176396D01*
X157387585Y-148206198D01*
X157237761Y-148236000D01*
X156932239Y-148236000D01*
X156782415Y-148206198D01*
X156632590Y-148176396D01*
X156350326Y-148059479D01*
X156096295Y-147889741D01*
X155880259Y-147673705D01*
X155710521Y-147419674D01*
X155593604Y-147137410D01*
X155534000Y-146837760D01*
X155534000Y-146532240D01*
X155593604Y-146232590D01*
X155710521Y-145950326D01*
X155880259Y-145696295D01*
X156096295Y-145480259D01*
X156350326Y-145310521D01*
X156632590Y-145193604D01*
X156782415Y-145163802D01*
X156932239Y-145134000D01*
X157237761Y-145134000D01*
X157387585Y-145163802D01*
G37*
G36*
X126105256Y-143298298D02*
G01*
X126211579Y-143319447D01*
X126512042Y-143443903D01*
X126782451Y-143624585D01*
X127012415Y-143854549D01*
X127012416Y-143854551D01*
X127193098Y-144124960D01*
X127317553Y-144425422D01*
X127362276Y-144650256D01*
X127381000Y-144744391D01*
X127381000Y-145069609D01*
X127317553Y-145388579D01*
X127193097Y-145689042D01*
X127012415Y-145959451D01*
X126782451Y-146189415D01*
X126512042Y-146370097D01*
X126211579Y-146494553D01*
X126105256Y-146515702D01*
X125892611Y-146558000D01*
X125567389Y-146558000D01*
X125354744Y-146515702D01*
X125248421Y-146494553D01*
X124947958Y-146370097D01*
X124677549Y-146189415D01*
X124447585Y-145959451D01*
X124266903Y-145689042D01*
X124142447Y-145388579D01*
X124079000Y-145069609D01*
X124079000Y-144744391D01*
X124097725Y-144650256D01*
X124142447Y-144425422D01*
X124266902Y-144124960D01*
X124447584Y-143854551D01*
X124447585Y-143854549D01*
X124677549Y-143624585D01*
X124947958Y-143443903D01*
X125248421Y-143319447D01*
X125354744Y-143298298D01*
X125567389Y-143256000D01*
X125892611Y-143256000D01*
X126105256Y-143298298D01*
G37*
G36*
X187065256Y-143298298D02*
G01*
X187171579Y-143319447D01*
X187472042Y-143443903D01*
X187742451Y-143624585D01*
X187972415Y-143854549D01*
X187972416Y-143854551D01*
X188153098Y-144124960D01*
X188277553Y-144425422D01*
X188322276Y-144650256D01*
X188341000Y-144744391D01*
X188341000Y-145069609D01*
X188277553Y-145388579D01*
X188153097Y-145689042D01*
X187972415Y-145959451D01*
X187742451Y-146189415D01*
X187472042Y-146370097D01*
X187171579Y-146494553D01*
X187065256Y-146515702D01*
X186852611Y-146558000D01*
X186527389Y-146558000D01*
X186314744Y-146515702D01*
X186208421Y-146494553D01*
X185907958Y-146370097D01*
X185637549Y-146189415D01*
X185407585Y-145959451D01*
X185226903Y-145689042D01*
X185102447Y-145388579D01*
X185039000Y-145069609D01*
X185039000Y-144744391D01*
X185057725Y-144650256D01*
X185102447Y-144425422D01*
X185226902Y-144124960D01*
X185407584Y-143854551D01*
X185407585Y-143854549D01*
X185637549Y-143624585D01*
X185907958Y-143443903D01*
X186208421Y-143319447D01*
X186314744Y-143298298D01*
X186527389Y-143256000D01*
X186852611Y-143256000D01*
X187065256Y-143298298D01*
G37*
G36*
X181985256Y-143298298D02*
G01*
X182091579Y-143319447D01*
X182392042Y-143443903D01*
X182662451Y-143624585D01*
X182892415Y-143854549D01*
X182892416Y-143854551D01*
X183073098Y-144124960D01*
X183197553Y-144425422D01*
X183242276Y-144650256D01*
X183261000Y-144744391D01*
X183261000Y-145069609D01*
X183197553Y-145388579D01*
X183073097Y-145689042D01*
X182892415Y-145959451D01*
X182662451Y-146189415D01*
X182392042Y-146370097D01*
X182091579Y-146494553D01*
X181985256Y-146515702D01*
X181772611Y-146558000D01*
X181447389Y-146558000D01*
X181234744Y-146515702D01*
X181128421Y-146494553D01*
X180827958Y-146370097D01*
X180557549Y-146189415D01*
X180327585Y-145959451D01*
X180146903Y-145689042D01*
X180022447Y-145388579D01*
X179959000Y-145069609D01*
X179959000Y-144744391D01*
X179977725Y-144650256D01*
X180022447Y-144425422D01*
X180146902Y-144124960D01*
X180327584Y-143854551D01*
X180327585Y-143854549D01*
X180557549Y-143624585D01*
X180827958Y-143443903D01*
X181128421Y-143319447D01*
X181234744Y-143298298D01*
X181447389Y-143256000D01*
X181772611Y-143256000D01*
X181985256Y-143298298D01*
G37*
G36*
X121025256Y-143298298D02*
G01*
X121131579Y-143319447D01*
X121432042Y-143443903D01*
X121702451Y-143624585D01*
X121932415Y-143854549D01*
X121932416Y-143854551D01*
X122113098Y-144124960D01*
X122237553Y-144425422D01*
X122282276Y-144650256D01*
X122301000Y-144744391D01*
X122301000Y-145069609D01*
X122237553Y-145388579D01*
X122113097Y-145689042D01*
X121932415Y-145959451D01*
X121702451Y-146189415D01*
X121432042Y-146370097D01*
X121131579Y-146494553D01*
X121025256Y-146515702D01*
X120812611Y-146558000D01*
X120487389Y-146558000D01*
X120274744Y-146515702D01*
X120168421Y-146494553D01*
X119867958Y-146370097D01*
X119597549Y-146189415D01*
X119367585Y-145959451D01*
X119186903Y-145689042D01*
X119062447Y-145388579D01*
X118999000Y-145069609D01*
X118999000Y-144744391D01*
X119017725Y-144650256D01*
X119062447Y-144425422D01*
X119186902Y-144124960D01*
X119367584Y-143854551D01*
X119367585Y-143854549D01*
X119597549Y-143624585D01*
X119867958Y-143443903D01*
X120168421Y-143319447D01*
X120274744Y-143298298D01*
X120487389Y-143256000D01*
X120812611Y-143256000D01*
X121025256Y-143298298D01*
G37*
G36*
X110865256Y-143298298D02*
G01*
X110971579Y-143319447D01*
X111272042Y-143443903D01*
X111542451Y-143624585D01*
X111772415Y-143854549D01*
X111772416Y-143854551D01*
X111953098Y-144124960D01*
X112077553Y-144425422D01*
X112122276Y-144650256D01*
X112141000Y-144744391D01*
X112141000Y-145069609D01*
X112077553Y-145388579D01*
X111953097Y-145689042D01*
X111772415Y-145959451D01*
X111542451Y-146189415D01*
X111272042Y-146370097D01*
X110971579Y-146494553D01*
X110865256Y-146515702D01*
X110652611Y-146558000D01*
X110327389Y-146558000D01*
X110114744Y-146515702D01*
X110008421Y-146494553D01*
X109707958Y-146370097D01*
X109437549Y-146189415D01*
X109207585Y-145959451D01*
X109026903Y-145689042D01*
X108902447Y-145388579D01*
X108839000Y-145069609D01*
X108839000Y-144744391D01*
X108857725Y-144650256D01*
X108902447Y-144425422D01*
X109026902Y-144124960D01*
X109207584Y-143854551D01*
X109207585Y-143854549D01*
X109437549Y-143624585D01*
X109707958Y-143443903D01*
X110008421Y-143319447D01*
X110114744Y-143298298D01*
X110327389Y-143256000D01*
X110652611Y-143256000D01*
X110865256Y-143298298D01*
G37*
G36*
X115945256Y-143298298D02*
G01*
X116051579Y-143319447D01*
X116352042Y-143443903D01*
X116622451Y-143624585D01*
X116852415Y-143854549D01*
X116852416Y-143854551D01*
X117033098Y-144124960D01*
X117157553Y-144425422D01*
X117202276Y-144650256D01*
X117221000Y-144744391D01*
X117221000Y-145069609D01*
X117157553Y-145388579D01*
X117033097Y-145689042D01*
X116852415Y-145959451D01*
X116622451Y-146189415D01*
X116352042Y-146370097D01*
X116051579Y-146494553D01*
X115945256Y-146515702D01*
X115732611Y-146558000D01*
X115407389Y-146558000D01*
X115194744Y-146515702D01*
X115088421Y-146494553D01*
X114787958Y-146370097D01*
X114517549Y-146189415D01*
X114287585Y-145959451D01*
X114106903Y-145689042D01*
X113982447Y-145388579D01*
X113919000Y-145069609D01*
X113919000Y-144744391D01*
X113937725Y-144650256D01*
X113982447Y-144425422D01*
X114106902Y-144124960D01*
X114287584Y-143854551D01*
X114287585Y-143854549D01*
X114517549Y-143624585D01*
X114787958Y-143443903D01*
X115088421Y-143319447D01*
X115194744Y-143298298D01*
X115407389Y-143256000D01*
X115732611Y-143256000D01*
X115945256Y-143298298D01*
G37*
G36*
X160384903Y-130757075D02*
G01*
X160612571Y-130851378D01*
X160817466Y-130988285D01*
X160991715Y-131162534D01*
X161128622Y-131367429D01*
X161222925Y-131595097D01*
X161271000Y-131836787D01*
X161271000Y-132083213D01*
X161222925Y-132324903D01*
X161128622Y-132552571D01*
X160991715Y-132757466D01*
X160817466Y-132931715D01*
X160612571Y-133068622D01*
X160612570Y-133068623D01*
X160612569Y-133068623D01*
X160384903Y-133162925D01*
X160143214Y-133211000D01*
X159896786Y-133211000D01*
X159655097Y-133162925D01*
X159427431Y-133068623D01*
X159427430Y-133068623D01*
X159427429Y-133068622D01*
X159222534Y-132931715D01*
X159048285Y-132757466D01*
X158911378Y-132552571D01*
X158817075Y-132324903D01*
X158769000Y-132083213D01*
X158769000Y-131836787D01*
X158817075Y-131595097D01*
X158911378Y-131367429D01*
X159048285Y-131162534D01*
X159222534Y-130988285D01*
X159427429Y-130851378D01*
X159655097Y-130757075D01*
X159896786Y-130709000D01*
X160143214Y-130709000D01*
X160384903Y-130757075D01*
G37*
G36*
X178164903Y-129527075D02*
G01*
X178392571Y-129621378D01*
X178597466Y-129758285D01*
X178771715Y-129932534D01*
X178908622Y-130137429D01*
X179002925Y-130365097D01*
X179051000Y-130606787D01*
X179051000Y-130853213D01*
X179002925Y-131094903D01*
X178908622Y-131322571D01*
X178771715Y-131527466D01*
X178597466Y-131701715D01*
X178392571Y-131838622D01*
X178392570Y-131838623D01*
X178392569Y-131838623D01*
X178164903Y-131932925D01*
X177923214Y-131981000D01*
X177676786Y-131981000D01*
X177435097Y-131932925D01*
X177207431Y-131838623D01*
X177207430Y-131838623D01*
X177207429Y-131838622D01*
X177002534Y-131701715D01*
X176828285Y-131527466D01*
X176691378Y-131322571D01*
X176597075Y-131094903D01*
X176549000Y-130853213D01*
X176549000Y-130606787D01*
X176597075Y-130365097D01*
X176691378Y-130137429D01*
X176828285Y-129932534D01*
X177002534Y-129758285D01*
X177207429Y-129621378D01*
X177435097Y-129527075D01*
X177676786Y-129479000D01*
X177923214Y-129479000D01*
X178164903Y-129527075D01*
G37*
G36*
X217476564Y-125909389D02*
G01*
X217667833Y-125988615D01*
X217667835Y-125988616D01*
X217756040Y-126047553D01*
X217839973Y-126103635D01*
X217986365Y-126250027D01*
X218101385Y-126422167D01*
X218180611Y-126613436D01*
X218221000Y-126816484D01*
X218221000Y-127023516D01*
X218180611Y-127226564D01*
X218101385Y-127417833D01*
X218101384Y-127417835D01*
X217986365Y-127589973D01*
X217839973Y-127736365D01*
X217667835Y-127851384D01*
X217667834Y-127851385D01*
X217667833Y-127851385D01*
X217476564Y-127930611D01*
X217273516Y-127971000D01*
X217066484Y-127971000D01*
X216863436Y-127930611D01*
X216672167Y-127851385D01*
X216672166Y-127851385D01*
X216672165Y-127851384D01*
X216500027Y-127736365D01*
X216353635Y-127589973D01*
X216238616Y-127417835D01*
X216238615Y-127417833D01*
X216159389Y-127226564D01*
X216119000Y-127023516D01*
X216119000Y-126816484D01*
X216159389Y-126613436D01*
X216238615Y-126422167D01*
X216353635Y-126250027D01*
X216500027Y-126103635D01*
X216583960Y-126047553D01*
X216672165Y-125988616D01*
X216672167Y-125988615D01*
X216863436Y-125909389D01*
X217066484Y-125869000D01*
X217273516Y-125869000D01*
X217476564Y-125909389D01*
G37*
G36*
X179051000Y-126981000D02*
G01*
X176549000Y-126981000D01*
X176549000Y-124479000D01*
X179051000Y-124479000D01*
X179051000Y-126981000D01*
G37*
G36*
X114784903Y-124527075D02*
G01*
X115012571Y-124621378D01*
X115217466Y-124758285D01*
X115391715Y-124932534D01*
X115528622Y-125137429D01*
X115528623Y-125137431D01*
X115622925Y-125365097D01*
X115671000Y-125606786D01*
X115671000Y-125853214D01*
X115622925Y-126094903D01*
X115528622Y-126322571D01*
X115391715Y-126527466D01*
X115217466Y-126701715D01*
X115012571Y-126838622D01*
X115012570Y-126838623D01*
X115012569Y-126838623D01*
X114784903Y-126932925D01*
X114543214Y-126981000D01*
X114296786Y-126981000D01*
X114055097Y-126932925D01*
X113827431Y-126838623D01*
X113827430Y-126838623D01*
X113827429Y-126838622D01*
X113622534Y-126701715D01*
X113448285Y-126527466D01*
X113311378Y-126322571D01*
X113217075Y-126094903D01*
X113169000Y-125853214D01*
X113169000Y-125606786D01*
X113217075Y-125365097D01*
X113311377Y-125137431D01*
X113311378Y-125137429D01*
X113448285Y-124932534D01*
X113622534Y-124758285D01*
X113827429Y-124621378D01*
X114055097Y-124527075D01*
X114296786Y-124479000D01*
X114543214Y-124479000D01*
X114784903Y-124527075D01*
G37*
G36*
X123171000Y-126981000D02*
G01*
X120669000Y-126981000D01*
X120669000Y-124479000D01*
X123171000Y-124479000D01*
X123171000Y-126981000D01*
G37*
G36*
X207391000Y-126111000D02*
G01*
X204089000Y-126111000D01*
X204089000Y-122809000D01*
X207391000Y-122809000D01*
X207391000Y-126111000D01*
G37*
G36*
X193415256Y-122851298D02*
G01*
X193521579Y-122872447D01*
X193822042Y-122996903D01*
X194092451Y-123177585D01*
X194322415Y-123407549D01*
X194322416Y-123407551D01*
X194503098Y-123677960D01*
X194627553Y-123978422D01*
X194691000Y-124297389D01*
X194691000Y-124622611D01*
X194648702Y-124835256D01*
X194627553Y-124941579D01*
X194503097Y-125242042D01*
X194322415Y-125512451D01*
X194092451Y-125742415D01*
X193822042Y-125923097D01*
X193521579Y-126047553D01*
X193415256Y-126068702D01*
X193202611Y-126111000D01*
X192877389Y-126111000D01*
X192664744Y-126068702D01*
X192558421Y-126047553D01*
X192257958Y-125923097D01*
X191987549Y-125742415D01*
X191757585Y-125512451D01*
X191576903Y-125242042D01*
X191452447Y-124941579D01*
X191431298Y-124835256D01*
X191389000Y-124622611D01*
X191389000Y-124297389D01*
X191452447Y-123978422D01*
X191576902Y-123677960D01*
X191757584Y-123407551D01*
X191757585Y-123407549D01*
X191987549Y-123177585D01*
X192257958Y-122996903D01*
X192558421Y-122872447D01*
X192664744Y-122851298D01*
X192877389Y-122809000D01*
X193202611Y-122809000D01*
X193415256Y-122851298D01*
G37*
G36*
X161271000Y-125711000D02*
G01*
X158769000Y-125711000D01*
X158769000Y-123209000D01*
X161271000Y-123209000D01*
X161271000Y-125711000D01*
G37*
G36*
X218221000Y-122971000D02*
G01*
X216119000Y-122971000D01*
X216119000Y-120869000D01*
X218221000Y-120869000D01*
X218221000Y-122971000D01*
G37*
G36*
X206115256Y-113961298D02*
G01*
X206221579Y-113982447D01*
X206522042Y-114106903D01*
X206792451Y-114287585D01*
X207022415Y-114517549D01*
X207139338Y-114692536D01*
X207203098Y-114787960D01*
X207327553Y-115088422D01*
X207382924Y-115366787D01*
X207391000Y-115407391D01*
X207391000Y-115732609D01*
X207327553Y-116051579D01*
X207203097Y-116352042D01*
X207022415Y-116622451D01*
X206792451Y-116852415D01*
X206522042Y-117033097D01*
X206221579Y-117157553D01*
X206115256Y-117178702D01*
X205902611Y-117221000D01*
X205577389Y-117221000D01*
X205364744Y-117178702D01*
X205258421Y-117157553D01*
X204957958Y-117033097D01*
X204687549Y-116852415D01*
X204457585Y-116622451D01*
X204276903Y-116352042D01*
X204152447Y-116051579D01*
X204089000Y-115732609D01*
X204089000Y-115407391D01*
X204097077Y-115366787D01*
X204152447Y-115088422D01*
X204276902Y-114787960D01*
X204340662Y-114692536D01*
X204457585Y-114517549D01*
X204687549Y-114287585D01*
X204957958Y-114106903D01*
X205258421Y-113982447D01*
X205364744Y-113961298D01*
X205577389Y-113919000D01*
X205902611Y-113919000D01*
X206115256Y-113961298D01*
G37*
G36*
X194691000Y-117221000D02*
G01*
X191389000Y-117221000D01*
X191389000Y-113919000D01*
X194691000Y-113919000D01*
X194691000Y-117221000D01*
G37*
G36*
X178164903Y-114287075D02*
G01*
X178392571Y-114381378D01*
X178597466Y-114518285D01*
X178771715Y-114692534D01*
X178908622Y-114897429D01*
X179002925Y-115125097D01*
X179051000Y-115366787D01*
X179051000Y-115613213D01*
X179002925Y-115854903D01*
X178908622Y-116082571D01*
X178771715Y-116287466D01*
X178597466Y-116461715D01*
X178392571Y-116598622D01*
X178392570Y-116598623D01*
X178392569Y-116598623D01*
X178164903Y-116692925D01*
X177923214Y-116741000D01*
X177676786Y-116741000D01*
X177435097Y-116692925D01*
X177207431Y-116598623D01*
X177207430Y-116598623D01*
X177207429Y-116598622D01*
X177002534Y-116461715D01*
X176828285Y-116287466D01*
X176691378Y-116082571D01*
X176597075Y-115854903D01*
X176549000Y-115613213D01*
X176549000Y-115366787D01*
X176597075Y-115125097D01*
X176691378Y-114897429D01*
X176828285Y-114692534D01*
X177002534Y-114518285D01*
X177207429Y-114381378D01*
X177435097Y-114287075D01*
X177676786Y-114239000D01*
X177923214Y-114239000D01*
X178164903Y-114287075D01*
G37*
G36*
X232658228Y-111901703D02*
G01*
X232813100Y-111965853D01*
X232952481Y-112058985D01*
X233071015Y-112177519D01*
X233164147Y-112316900D01*
X233228297Y-112471772D01*
X233261000Y-112636184D01*
X233261000Y-112803816D01*
X233228297Y-112968228D01*
X233164147Y-113123100D01*
X233071015Y-113262481D01*
X232952481Y-113381015D01*
X232813100Y-113474147D01*
X232658228Y-113538297D01*
X232493816Y-113571000D01*
X232326184Y-113571000D01*
X232161772Y-113538297D01*
X232006900Y-113474147D01*
X231867519Y-113381015D01*
X231748985Y-113262481D01*
X231655853Y-113123100D01*
X231591703Y-112968228D01*
X231559000Y-112803816D01*
X231559000Y-112636184D01*
X231591703Y-112471772D01*
X231655853Y-112316900D01*
X231748985Y-112177519D01*
X231867519Y-112058985D01*
X232006900Y-111965853D01*
X232161772Y-111901703D01*
X232326184Y-111869000D01*
X232493816Y-111869000D01*
X232658228Y-111901703D01*
G37*
G36*
X179051000Y-111741000D02*
G01*
X176549000Y-111741000D01*
X176549000Y-109239000D01*
X179051000Y-109239000D01*
X179051000Y-111741000D01*
G37*
G36*
X233261000Y-110071000D02*
G01*
X231559000Y-110071000D01*
X231559000Y-108369000D01*
X233261000Y-108369000D01*
X233261000Y-110071000D01*
G37*
G36*
X244342256Y-97451298D02*
G01*
X244448579Y-97472447D01*
X244749042Y-97596903D01*
X245019451Y-97777585D01*
X245249415Y-98007549D01*
X245430097Y-98277958D01*
X245554553Y-98578421D01*
X245618000Y-98897391D01*
X245618000Y-99222609D01*
X245554553Y-99541579D01*
X245430097Y-99842042D01*
X245249415Y-100112451D01*
X245019451Y-100342415D01*
X244749042Y-100523097D01*
X244448579Y-100647553D01*
X244342256Y-100668702D01*
X244129611Y-100711000D01*
X243804389Y-100711000D01*
X243591744Y-100668702D01*
X243485421Y-100647553D01*
X243184958Y-100523097D01*
X242914549Y-100342415D01*
X242684585Y-100112451D01*
X242503903Y-99842042D01*
X242379447Y-99541579D01*
X242316000Y-99222609D01*
X242316000Y-98897391D01*
X242379447Y-98578421D01*
X242503903Y-98277958D01*
X242684585Y-98007549D01*
X242914549Y-97777585D01*
X243184958Y-97596903D01*
X243485421Y-97472447D01*
X243591744Y-97451298D01*
X243804389Y-97409000D01*
X244129611Y-97409000D01*
X244342256Y-97451298D01*
G37*
G36*
X244342256Y-92371298D02*
G01*
X244448579Y-92392447D01*
X244749042Y-92516903D01*
X245019451Y-92697585D01*
X245249415Y-92927549D01*
X245430097Y-93197958D01*
X245554553Y-93498421D01*
X245618000Y-93817391D01*
X245618000Y-94142609D01*
X245554553Y-94461579D01*
X245430097Y-94762042D01*
X245249415Y-95032451D01*
X245019451Y-95262415D01*
X244749042Y-95443097D01*
X244448579Y-95567553D01*
X244342256Y-95588702D01*
X244129611Y-95631000D01*
X243804389Y-95631000D01*
X243591744Y-95588702D01*
X243485421Y-95567553D01*
X243184958Y-95443097D01*
X242914549Y-95262415D01*
X242684585Y-95032451D01*
X242503903Y-94762042D01*
X242379447Y-94461579D01*
X242316000Y-94142609D01*
X242316000Y-93817391D01*
X242379447Y-93498421D01*
X242503903Y-93197958D01*
X242684585Y-92927549D01*
X242914549Y-92697585D01*
X243184958Y-92516903D01*
X243485421Y-92392447D01*
X243591744Y-92371298D01*
X243804389Y-92329000D01*
X244129611Y-92329000D01*
X244342256Y-92371298D01*
G37*
G36*
X93458512Y-89273927D02*
G01*
X93607812Y-89303624D01*
X93771784Y-89371544D01*
X93919354Y-89470147D01*
X94044853Y-89595646D01*
X94143456Y-89743216D01*
X94211376Y-89907188D01*
X94246000Y-90081259D01*
X94246000Y-90258741D01*
X94211376Y-90432812D01*
X94143456Y-90596784D01*
X94044853Y-90744354D01*
X93919354Y-90869853D01*
X93771784Y-90968456D01*
X93607812Y-91036376D01*
X93458512Y-91066073D01*
X93433742Y-91071000D01*
X93256258Y-91071000D01*
X93231488Y-91066073D01*
X93082188Y-91036376D01*
X92918216Y-90968456D01*
X92770646Y-90869853D01*
X92645147Y-90744354D01*
X92546544Y-90596784D01*
X92478624Y-90432812D01*
X92444000Y-90258741D01*
X92444000Y-90081259D01*
X92478624Y-89907188D01*
X92546544Y-89743216D01*
X92645147Y-89595646D01*
X92770646Y-89470147D01*
X92918216Y-89371544D01*
X93082188Y-89303624D01*
X93231488Y-89273927D01*
X93256258Y-89269000D01*
X93433742Y-89269000D01*
X93458512Y-89273927D01*
G37*
G36*
X244342256Y-87291298D02*
G01*
X244448579Y-87312447D01*
X244749042Y-87436903D01*
X245019451Y-87617585D01*
X245249415Y-87847549D01*
X245430097Y-88117958D01*
X245554553Y-88418421D01*
X245618000Y-88737391D01*
X245618000Y-89062609D01*
X245554553Y-89381579D01*
X245430097Y-89682042D01*
X245249415Y-89952451D01*
X245019451Y-90182415D01*
X244749042Y-90363097D01*
X244448579Y-90487553D01*
X244342256Y-90508702D01*
X244129611Y-90551000D01*
X243804389Y-90551000D01*
X243591744Y-90508702D01*
X243485421Y-90487553D01*
X243184958Y-90363097D01*
X242914549Y-90182415D01*
X242684585Y-89952451D01*
X242503903Y-89682042D01*
X242379447Y-89381579D01*
X242316000Y-89062609D01*
X242316000Y-88737391D01*
X242379447Y-88418421D01*
X242503903Y-88117958D01*
X242684585Y-87847549D01*
X242914549Y-87617585D01*
X243184958Y-87436903D01*
X243485421Y-87312447D01*
X243591744Y-87291298D01*
X243804389Y-87249000D01*
X244129611Y-87249000D01*
X244342256Y-87291298D01*
G37*
G36*
X93458512Y-86733927D02*
G01*
X93607812Y-86763624D01*
X93771784Y-86831544D01*
X93919354Y-86930147D01*
X94044853Y-87055646D01*
X94143456Y-87203216D01*
X94211376Y-87367188D01*
X94246000Y-87541259D01*
X94246000Y-87718741D01*
X94211376Y-87892812D01*
X94143456Y-88056784D01*
X94044853Y-88204354D01*
X93919354Y-88329853D01*
X93771784Y-88428456D01*
X93607812Y-88496376D01*
X93458512Y-88526073D01*
X93433742Y-88531000D01*
X93256258Y-88531000D01*
X93231488Y-88526073D01*
X93082188Y-88496376D01*
X92918216Y-88428456D01*
X92770646Y-88329853D01*
X92645147Y-88204354D01*
X92546544Y-88056784D01*
X92478624Y-87892812D01*
X92444000Y-87718741D01*
X92444000Y-87541259D01*
X92478624Y-87367188D01*
X92546544Y-87203216D01*
X92645147Y-87055646D01*
X92770646Y-86930147D01*
X92918216Y-86831544D01*
X93082188Y-86763624D01*
X93231488Y-86733927D01*
X93256258Y-86729000D01*
X93433742Y-86729000D01*
X93458512Y-86733927D01*
G37*
G36*
X93458512Y-84193927D02*
G01*
X93607812Y-84223624D01*
X93771784Y-84291544D01*
X93919354Y-84390147D01*
X94044853Y-84515646D01*
X94143456Y-84663216D01*
X94211376Y-84827188D01*
X94246000Y-85001259D01*
X94246000Y-85178741D01*
X94211376Y-85352812D01*
X94143456Y-85516784D01*
X94044853Y-85664354D01*
X93919354Y-85789853D01*
X93771784Y-85888456D01*
X93607812Y-85956376D01*
X93458512Y-85986073D01*
X93433742Y-85991000D01*
X93256258Y-85991000D01*
X93231488Y-85986073D01*
X93082188Y-85956376D01*
X92918216Y-85888456D01*
X92770646Y-85789853D01*
X92645147Y-85664354D01*
X92546544Y-85516784D01*
X92478624Y-85352812D01*
X92444000Y-85178741D01*
X92444000Y-85001259D01*
X92478624Y-84827188D01*
X92546544Y-84663216D01*
X92645147Y-84515646D01*
X92770646Y-84390147D01*
X92918216Y-84291544D01*
X93082188Y-84223624D01*
X93231488Y-84193927D01*
X93256258Y-84189000D01*
X93433742Y-84189000D01*
X93458512Y-84193927D01*
G37*
G36*
X244342256Y-82211298D02*
G01*
X244448579Y-82232447D01*
X244749042Y-82356903D01*
X245019451Y-82537585D01*
X245249415Y-82767549D01*
X245430097Y-83037958D01*
X245554553Y-83338421D01*
X245618000Y-83657391D01*
X245618000Y-83982609D01*
X245554553Y-84301579D01*
X245430097Y-84602042D01*
X245249415Y-84872451D01*
X245019451Y-85102415D01*
X244749042Y-85283097D01*
X244448579Y-85407553D01*
X244342256Y-85428702D01*
X244129611Y-85471000D01*
X243804389Y-85471000D01*
X243591744Y-85428702D01*
X243485421Y-85407553D01*
X243184958Y-85283097D01*
X242914549Y-85102415D01*
X242684585Y-84872451D01*
X242503903Y-84602042D01*
X242379447Y-84301579D01*
X242316000Y-83982609D01*
X242316000Y-83657391D01*
X242379447Y-83338421D01*
X242503903Y-83037958D01*
X242684585Y-82767549D01*
X242914549Y-82537585D01*
X243184958Y-82356903D01*
X243485421Y-82232447D01*
X243591744Y-82211298D01*
X243804389Y-82169000D01*
X244129611Y-82169000D01*
X244342256Y-82211298D01*
G37*
G36*
X93458512Y-81653927D02*
G01*
X93607812Y-81683624D01*
X93771784Y-81751544D01*
X93919354Y-81850147D01*
X94044853Y-81975646D01*
X94143456Y-82123216D01*
X94211376Y-82287188D01*
X94246000Y-82461259D01*
X94246000Y-82638741D01*
X94211376Y-82812812D01*
X94143456Y-82976784D01*
X94044853Y-83124354D01*
X93919354Y-83249853D01*
X93771784Y-83348456D01*
X93607812Y-83416376D01*
X93458512Y-83446073D01*
X93433742Y-83451000D01*
X93256258Y-83451000D01*
X93231488Y-83446073D01*
X93082188Y-83416376D01*
X92918216Y-83348456D01*
X92770646Y-83249853D01*
X92645147Y-83124354D01*
X92546544Y-82976784D01*
X92478624Y-82812812D01*
X92444000Y-82638741D01*
X92444000Y-82461259D01*
X92478624Y-82287188D01*
X92546544Y-82123216D01*
X92645147Y-81975646D01*
X92770646Y-81850147D01*
X92918216Y-81751544D01*
X93082188Y-81683624D01*
X93231488Y-81653927D01*
X93256258Y-81649000D01*
X93433742Y-81649000D01*
X93458512Y-81653927D01*
G37*
G36*
X94246000Y-80911000D02*
G01*
X92444000Y-80911000D01*
X92444000Y-79109000D01*
X94246000Y-79109000D01*
X94246000Y-80911000D01*
G37*
G36*
X214743512Y-72763927D02*
G01*
X214892812Y-72793624D01*
X215056784Y-72861544D01*
X215204354Y-72960147D01*
X215329853Y-73085646D01*
X215428456Y-73233216D01*
X215496376Y-73397188D01*
X215531000Y-73571259D01*
X215531000Y-73748741D01*
X215496376Y-73922812D01*
X215428456Y-74086784D01*
X215329853Y-74234354D01*
X215204354Y-74359853D01*
X215056784Y-74458456D01*
X214892812Y-74526376D01*
X214743512Y-74556073D01*
X214718742Y-74561000D01*
X214541258Y-74561000D01*
X214516488Y-74556073D01*
X214367188Y-74526376D01*
X214203216Y-74458456D01*
X214055646Y-74359853D01*
X213930147Y-74234354D01*
X213831544Y-74086784D01*
X213763624Y-73922812D01*
X213729000Y-73748741D01*
X213729000Y-73571259D01*
X213763624Y-73397188D01*
X213831544Y-73233216D01*
X213930147Y-73085646D01*
X214055646Y-72960147D01*
X214203216Y-72861544D01*
X214367188Y-72793624D01*
X214516488Y-72763927D01*
X214541258Y-72759000D01*
X214718742Y-72759000D01*
X214743512Y-72763927D01*
G37*
G36*
X237603512Y-72763927D02*
G01*
X237752812Y-72793624D01*
X237916784Y-72861544D01*
X238064354Y-72960147D01*
X238189853Y-73085646D01*
X238288456Y-73233216D01*
X238356376Y-73397188D01*
X238391000Y-73571259D01*
X238391000Y-73748741D01*
X238356376Y-73922812D01*
X238288456Y-74086784D01*
X238189853Y-74234354D01*
X238064354Y-74359853D01*
X237916784Y-74458456D01*
X237752812Y-74526376D01*
X237603512Y-74556073D01*
X237578742Y-74561000D01*
X237401258Y-74561000D01*
X237376488Y-74556073D01*
X237227188Y-74526376D01*
X237063216Y-74458456D01*
X236915646Y-74359853D01*
X236790147Y-74234354D01*
X236691544Y-74086784D01*
X236623624Y-73922812D01*
X236589000Y-73748741D01*
X236589000Y-73571259D01*
X236623624Y-73397188D01*
X236691544Y-73233216D01*
X236790147Y-73085646D01*
X236915646Y-72960147D01*
X237063216Y-72861544D01*
X237227188Y-72793624D01*
X237376488Y-72763927D01*
X237401258Y-72759000D01*
X237578742Y-72759000D01*
X237603512Y-72763927D01*
G37*
G36*
X214743512Y-70223927D02*
G01*
X214892812Y-70253624D01*
X215056784Y-70321544D01*
X215204354Y-70420147D01*
X215329853Y-70545646D01*
X215428456Y-70693216D01*
X215496376Y-70857188D01*
X215531000Y-71031259D01*
X215531000Y-71208741D01*
X215496376Y-71382812D01*
X215428456Y-71546784D01*
X215329853Y-71694354D01*
X215204354Y-71819853D01*
X215056784Y-71918456D01*
X214892812Y-71986376D01*
X214743512Y-72016073D01*
X214718742Y-72021000D01*
X214541258Y-72021000D01*
X214516488Y-72016073D01*
X214367188Y-71986376D01*
X214203216Y-71918456D01*
X214055646Y-71819853D01*
X213930147Y-71694354D01*
X213831544Y-71546784D01*
X213763624Y-71382812D01*
X213729000Y-71208741D01*
X213729000Y-71031259D01*
X213763624Y-70857188D01*
X213831544Y-70693216D01*
X213930147Y-70545646D01*
X214055646Y-70420147D01*
X214203216Y-70321544D01*
X214367188Y-70253624D01*
X214516488Y-70223927D01*
X214541258Y-70219000D01*
X214718742Y-70219000D01*
X214743512Y-70223927D01*
G37*
G36*
X237603512Y-70223927D02*
G01*
X237752812Y-70253624D01*
X237916784Y-70321544D01*
X238064354Y-70420147D01*
X238189853Y-70545646D01*
X238288456Y-70693216D01*
X238356376Y-70857188D01*
X238391000Y-71031259D01*
X238391000Y-71208741D01*
X238356376Y-71382812D01*
X238288456Y-71546784D01*
X238189853Y-71694354D01*
X238064354Y-71819853D01*
X237916784Y-71918456D01*
X237752812Y-71986376D01*
X237603512Y-72016073D01*
X237578742Y-72021000D01*
X237401258Y-72021000D01*
X237376488Y-72016073D01*
X237227188Y-71986376D01*
X237063216Y-71918456D01*
X236915646Y-71819853D01*
X236790147Y-71694354D01*
X236691544Y-71546784D01*
X236623624Y-71382812D01*
X236589000Y-71208741D01*
X236589000Y-71031259D01*
X236623624Y-70857188D01*
X236691544Y-70693216D01*
X236790147Y-70545646D01*
X236915646Y-70420147D01*
X237063216Y-70321544D01*
X237227188Y-70253624D01*
X237376488Y-70223927D01*
X237401258Y-70219000D01*
X237578742Y-70219000D01*
X237603512Y-70223927D01*
G37*
G36*
X214743512Y-67683927D02*
G01*
X214892812Y-67713624D01*
X215056784Y-67781544D01*
X215204354Y-67880147D01*
X215329853Y-68005646D01*
X215428456Y-68153216D01*
X215496376Y-68317188D01*
X215531000Y-68491259D01*
X215531000Y-68668741D01*
X215496376Y-68842812D01*
X215428456Y-69006784D01*
X215329853Y-69154354D01*
X215204354Y-69279853D01*
X215056784Y-69378456D01*
X214892812Y-69446376D01*
X214743512Y-69476073D01*
X214718742Y-69481000D01*
X214541258Y-69481000D01*
X214516488Y-69476073D01*
X214367188Y-69446376D01*
X214203216Y-69378456D01*
X214055646Y-69279853D01*
X213930147Y-69154354D01*
X213831544Y-69006784D01*
X213763624Y-68842812D01*
X213729000Y-68668741D01*
X213729000Y-68491259D01*
X213763624Y-68317188D01*
X213831544Y-68153216D01*
X213930147Y-68005646D01*
X214055646Y-67880147D01*
X214203216Y-67781544D01*
X214367188Y-67713624D01*
X214516488Y-67683927D01*
X214541258Y-67679000D01*
X214718742Y-67679000D01*
X214743512Y-67683927D01*
G37*
G36*
X237603512Y-67683927D02*
G01*
X237752812Y-67713624D01*
X237916784Y-67781544D01*
X238064354Y-67880147D01*
X238189853Y-68005646D01*
X238288456Y-68153216D01*
X238356376Y-68317188D01*
X238391000Y-68491259D01*
X238391000Y-68668741D01*
X238356376Y-68842812D01*
X238288456Y-69006784D01*
X238189853Y-69154354D01*
X238064354Y-69279853D01*
X237916784Y-69378456D01*
X237752812Y-69446376D01*
X237603512Y-69476073D01*
X237578742Y-69481000D01*
X237401258Y-69481000D01*
X237376488Y-69476073D01*
X237227188Y-69446376D01*
X237063216Y-69378456D01*
X236915646Y-69279853D01*
X236790147Y-69154354D01*
X236691544Y-69006784D01*
X236623624Y-68842812D01*
X236589000Y-68668741D01*
X236589000Y-68491259D01*
X236623624Y-68317188D01*
X236691544Y-68153216D01*
X236790147Y-68005646D01*
X236915646Y-67880147D01*
X237063216Y-67781544D01*
X237227188Y-67713624D01*
X237376488Y-67683927D01*
X237401258Y-67679000D01*
X237578742Y-67679000D01*
X237603512Y-67683927D01*
G37*
G36*
X237603512Y-65143927D02*
G01*
X237752812Y-65173624D01*
X237916784Y-65241544D01*
X238064354Y-65340147D01*
X238189853Y-65465646D01*
X238288456Y-65613216D01*
X238356376Y-65777188D01*
X238391000Y-65951259D01*
X238391000Y-66128741D01*
X238356376Y-66302812D01*
X238288456Y-66466784D01*
X238189853Y-66614354D01*
X238064354Y-66739853D01*
X237916784Y-66838456D01*
X237752812Y-66906376D01*
X237603512Y-66936073D01*
X237578742Y-66941000D01*
X237401258Y-66941000D01*
X237376488Y-66936073D01*
X237227188Y-66906376D01*
X237063216Y-66838456D01*
X236915646Y-66739853D01*
X236790147Y-66614354D01*
X236691544Y-66466784D01*
X236623624Y-66302812D01*
X236589000Y-66128741D01*
X236589000Y-65951259D01*
X236623624Y-65777188D01*
X236691544Y-65613216D01*
X236790147Y-65465646D01*
X236915646Y-65340147D01*
X237063216Y-65241544D01*
X237227188Y-65173624D01*
X237376488Y-65143927D01*
X237401258Y-65139000D01*
X237578742Y-65139000D01*
X237603512Y-65143927D01*
G37*
G36*
X214743512Y-65143927D02*
G01*
X214892812Y-65173624D01*
X215056784Y-65241544D01*
X215204354Y-65340147D01*
X215329853Y-65465646D01*
X215428456Y-65613216D01*
X215496376Y-65777188D01*
X215531000Y-65951259D01*
X215531000Y-66128741D01*
X215496376Y-66302812D01*
X215428456Y-66466784D01*
X215329853Y-66614354D01*
X215204354Y-66739853D01*
X215056784Y-66838456D01*
X214892812Y-66906376D01*
X214743512Y-66936073D01*
X214718742Y-66941000D01*
X214541258Y-66941000D01*
X214516488Y-66936073D01*
X214367188Y-66906376D01*
X214203216Y-66838456D01*
X214055646Y-66739853D01*
X213930147Y-66614354D01*
X213831544Y-66466784D01*
X213763624Y-66302812D01*
X213729000Y-66128741D01*
X213729000Y-65951259D01*
X213763624Y-65777188D01*
X213831544Y-65613216D01*
X213930147Y-65465646D01*
X214055646Y-65340147D01*
X214203216Y-65241544D01*
X214367188Y-65173624D01*
X214516488Y-65143927D01*
X214541258Y-65139000D01*
X214718742Y-65139000D01*
X214743512Y-65143927D01*
G37*
G36*
X237603512Y-62603927D02*
G01*
X237752812Y-62633624D01*
X237916784Y-62701544D01*
X238064354Y-62800147D01*
X238189853Y-62925646D01*
X238288456Y-63073216D01*
X238356376Y-63237188D01*
X238391000Y-63411259D01*
X238391000Y-63588741D01*
X238356376Y-63762812D01*
X238288456Y-63926784D01*
X238189853Y-64074354D01*
X238064354Y-64199853D01*
X237916784Y-64298456D01*
X237752812Y-64366376D01*
X237603512Y-64396073D01*
X237578742Y-64401000D01*
X237401258Y-64401000D01*
X237376488Y-64396073D01*
X237227188Y-64366376D01*
X237063216Y-64298456D01*
X236915646Y-64199853D01*
X236790147Y-64074354D01*
X236691544Y-63926784D01*
X236623624Y-63762812D01*
X236589000Y-63588741D01*
X236589000Y-63411259D01*
X236623624Y-63237188D01*
X236691544Y-63073216D01*
X236790147Y-62925646D01*
X236915646Y-62800147D01*
X237063216Y-62701544D01*
X237227188Y-62633624D01*
X237376488Y-62603927D01*
X237401258Y-62599000D01*
X237578742Y-62599000D01*
X237603512Y-62603927D01*
G37*
G36*
X214743512Y-62603927D02*
G01*
X214892812Y-62633624D01*
X215056784Y-62701544D01*
X215204354Y-62800147D01*
X215329853Y-62925646D01*
X215428456Y-63073216D01*
X215496376Y-63237188D01*
X215531000Y-63411259D01*
X215531000Y-63588741D01*
X215496376Y-63762812D01*
X215428456Y-63926784D01*
X215329853Y-64074354D01*
X215204354Y-64199853D01*
X215056784Y-64298456D01*
X214892812Y-64366376D01*
X214743512Y-64396073D01*
X214718742Y-64401000D01*
X214541258Y-64401000D01*
X214516488Y-64396073D01*
X214367188Y-64366376D01*
X214203216Y-64298456D01*
X214055646Y-64199853D01*
X213930147Y-64074354D01*
X213831544Y-63926784D01*
X213763624Y-63762812D01*
X213729000Y-63588741D01*
X213729000Y-63411259D01*
X213763624Y-63237188D01*
X213831544Y-63073216D01*
X213930147Y-62925646D01*
X214055646Y-62800147D01*
X214203216Y-62701544D01*
X214367188Y-62633624D01*
X214516488Y-62603927D01*
X214541258Y-62599000D01*
X214718742Y-62599000D01*
X214743512Y-62603927D01*
G37*
G36*
X237603512Y-60063927D02*
G01*
X237752812Y-60093624D01*
X237916784Y-60161544D01*
X238064354Y-60260147D01*
X238189853Y-60385646D01*
X238288456Y-60533216D01*
X238356376Y-60697188D01*
X238391000Y-60871259D01*
X238391000Y-61048741D01*
X238356376Y-61222812D01*
X238288456Y-61386784D01*
X238189853Y-61534354D01*
X238064354Y-61659853D01*
X237916784Y-61758456D01*
X237752812Y-61826376D01*
X237603512Y-61856073D01*
X237578742Y-61861000D01*
X237401258Y-61861000D01*
X237376488Y-61856073D01*
X237227188Y-61826376D01*
X237063216Y-61758456D01*
X236915646Y-61659853D01*
X236790147Y-61534354D01*
X236691544Y-61386784D01*
X236623624Y-61222812D01*
X236589000Y-61048741D01*
X236589000Y-60871259D01*
X236623624Y-60697188D01*
X236691544Y-60533216D01*
X236790147Y-60385646D01*
X236915646Y-60260147D01*
X237063216Y-60161544D01*
X237227188Y-60093624D01*
X237376488Y-60063927D01*
X237401258Y-60059000D01*
X237578742Y-60059000D01*
X237603512Y-60063927D01*
G37*
G36*
X214743512Y-60063927D02*
G01*
X214892812Y-60093624D01*
X215056784Y-60161544D01*
X215204354Y-60260147D01*
X215329853Y-60385646D01*
X215428456Y-60533216D01*
X215496376Y-60697188D01*
X215531000Y-60871259D01*
X215531000Y-61048741D01*
X215496376Y-61222812D01*
X215428456Y-61386784D01*
X215329853Y-61534354D01*
X215204354Y-61659853D01*
X215056784Y-61758456D01*
X214892812Y-61826376D01*
X214743512Y-61856073D01*
X214718742Y-61861000D01*
X214541258Y-61861000D01*
X214516488Y-61856073D01*
X214367188Y-61826376D01*
X214203216Y-61758456D01*
X214055646Y-61659853D01*
X213930147Y-61534354D01*
X213831544Y-61386784D01*
X213763624Y-61222812D01*
X213729000Y-61048741D01*
X213729000Y-60871259D01*
X213763624Y-60697188D01*
X213831544Y-60533216D01*
X213930147Y-60385646D01*
X214055646Y-60260147D01*
X214203216Y-60161544D01*
X214367188Y-60093624D01*
X214516488Y-60063927D01*
X214541258Y-60059000D01*
X214718742Y-60059000D01*
X214743512Y-60063927D01*
G37*
G36*
X214743512Y-57523927D02*
G01*
X214892812Y-57553624D01*
X215056784Y-57621544D01*
X215204354Y-57720147D01*
X215329853Y-57845646D01*
X215428456Y-57993216D01*
X215496376Y-58157188D01*
X215531000Y-58331259D01*
X215531000Y-58508741D01*
X215496376Y-58682812D01*
X215428456Y-58846784D01*
X215329853Y-58994354D01*
X215204354Y-59119853D01*
X215056784Y-59218456D01*
X214892812Y-59286376D01*
X214743512Y-59316073D01*
X214718742Y-59321000D01*
X214541258Y-59321000D01*
X214516488Y-59316073D01*
X214367188Y-59286376D01*
X214203216Y-59218456D01*
X214055646Y-59119853D01*
X213930147Y-58994354D01*
X213831544Y-58846784D01*
X213763624Y-58682812D01*
X213729000Y-58508741D01*
X213729000Y-58331259D01*
X213763624Y-58157188D01*
X213831544Y-57993216D01*
X213930147Y-57845646D01*
X214055646Y-57720147D01*
X214203216Y-57621544D01*
X214367188Y-57553624D01*
X214516488Y-57523927D01*
X214541258Y-57519000D01*
X214718742Y-57519000D01*
X214743512Y-57523927D01*
G37*
G36*
X237603512Y-57523927D02*
G01*
X237752812Y-57553624D01*
X237916784Y-57621544D01*
X238064354Y-57720147D01*
X238189853Y-57845646D01*
X238288456Y-57993216D01*
X238356376Y-58157188D01*
X238391000Y-58331259D01*
X238391000Y-58508741D01*
X238356376Y-58682812D01*
X238288456Y-58846784D01*
X238189853Y-58994354D01*
X238064354Y-59119853D01*
X237916784Y-59218456D01*
X237752812Y-59286376D01*
X237603512Y-59316073D01*
X237578742Y-59321000D01*
X237401258Y-59321000D01*
X237376488Y-59316073D01*
X237227188Y-59286376D01*
X237063216Y-59218456D01*
X236915646Y-59119853D01*
X236790147Y-58994354D01*
X236691544Y-58846784D01*
X236623624Y-58682812D01*
X236589000Y-58508741D01*
X236589000Y-58331259D01*
X236623624Y-58157188D01*
X236691544Y-57993216D01*
X236790147Y-57845646D01*
X236915646Y-57720147D01*
X237063216Y-57621544D01*
X237227188Y-57553624D01*
X237376488Y-57523927D01*
X237401258Y-57519000D01*
X237578742Y-57519000D01*
X237603512Y-57523927D01*
G37*
G36*
X96035787Y-51585462D02*
G01*
X96035790Y-51585463D01*
X96035789Y-51585463D01*
X96682029Y-51853144D01*
X97263631Y-52241758D01*
X97758242Y-52736369D01*
X98146856Y-53317971D01*
X98146856Y-53317972D01*
X98414538Y-53964213D01*
X98551000Y-54650256D01*
X98551000Y-55349744D01*
X98414538Y-56035787D01*
X98414537Y-56035789D01*
X98146856Y-56682029D01*
X97758242Y-57263631D01*
X97263631Y-57758242D01*
X96682029Y-58146856D01*
X96236843Y-58331258D01*
X96035787Y-58414538D01*
X95349744Y-58551000D01*
X94650256Y-58551000D01*
X93964213Y-58414538D01*
X93763157Y-58331258D01*
X93317971Y-58146856D01*
X92736369Y-57758242D01*
X92241758Y-57263631D01*
X91853144Y-56682029D01*
X91585463Y-56035789D01*
X91585462Y-56035787D01*
X91449000Y-55349744D01*
X91449000Y-54650256D01*
X91585462Y-53964213D01*
X91853144Y-53317972D01*
X91853144Y-53317971D01*
X92241758Y-52736369D01*
X92736369Y-52241758D01*
X93317971Y-51853144D01*
X93964211Y-51585463D01*
X93964210Y-51585463D01*
X93964213Y-51585462D01*
X94650256Y-51449000D01*
X95349744Y-51449000D01*
X96035787Y-51585462D01*
G37*
G36*
X246035787Y-51585462D02*
G01*
X246035790Y-51585463D01*
X246035789Y-51585463D01*
X246682029Y-51853144D01*
X247263631Y-52241758D01*
X247758242Y-52736369D01*
X248146856Y-53317971D01*
X248146856Y-53317972D01*
X248414538Y-53964213D01*
X248551000Y-54650256D01*
X248551000Y-55349744D01*
X248414538Y-56035787D01*
X248414537Y-56035789D01*
X248146856Y-56682029D01*
X247758242Y-57263631D01*
X247263631Y-57758242D01*
X246682029Y-58146856D01*
X246236843Y-58331258D01*
X246035787Y-58414538D01*
X245349744Y-58551000D01*
X244650256Y-58551000D01*
X243964213Y-58414538D01*
X243763157Y-58331258D01*
X243317971Y-58146856D01*
X242736369Y-57758242D01*
X242241758Y-57263631D01*
X241853144Y-56682029D01*
X241585463Y-56035789D01*
X241585462Y-56035787D01*
X241449000Y-55349744D01*
X241449000Y-54650256D01*
X241585462Y-53964213D01*
X241853144Y-53317972D01*
X241853144Y-53317971D01*
X242241758Y-52736369D01*
X242736369Y-52241758D01*
X243317971Y-51853144D01*
X243964211Y-51585463D01*
X243964210Y-51585463D01*
X243964213Y-51585462D01*
X244650256Y-51449000D01*
X245349744Y-51449000D01*
X246035787Y-51585462D01*
G37*
G36*
X201035256Y-54144298D02*
G01*
X201141579Y-54165447D01*
X201442042Y-54289903D01*
X201712451Y-54470585D01*
X201942415Y-54700549D01*
X202123097Y-54970958D01*
X202247553Y-55271421D01*
X202311000Y-55590391D01*
X202311000Y-55915609D01*
X202247553Y-56234579D01*
X202123097Y-56535042D01*
X201942415Y-56805451D01*
X201712451Y-57035415D01*
X201442042Y-57216097D01*
X201141579Y-57340553D01*
X201035256Y-57361702D01*
X200822611Y-57404000D01*
X200497389Y-57404000D01*
X200284744Y-57361702D01*
X200178421Y-57340553D01*
X199877958Y-57216097D01*
X199607549Y-57035415D01*
X199377585Y-56805451D01*
X199196903Y-56535042D01*
X199072447Y-56234579D01*
X199009000Y-55915609D01*
X199009000Y-55590391D01*
X199072447Y-55271421D01*
X199196903Y-54970958D01*
X199377585Y-54700549D01*
X199607549Y-54470585D01*
X199877958Y-54289903D01*
X200178421Y-54165447D01*
X200284744Y-54144298D01*
X200497389Y-54102000D01*
X200822611Y-54102000D01*
X201035256Y-54144298D01*
G37*
G36*
X143885256Y-54144298D02*
G01*
X143991579Y-54165447D01*
X144292042Y-54289903D01*
X144562451Y-54470585D01*
X144792415Y-54700549D01*
X144973097Y-54970958D01*
X145097553Y-55271421D01*
X145161000Y-55590391D01*
X145161000Y-55915609D01*
X145097553Y-56234579D01*
X144973097Y-56535042D01*
X144792415Y-56805451D01*
X144562451Y-57035415D01*
X144292042Y-57216097D01*
X143991579Y-57340553D01*
X143885256Y-57361702D01*
X143672611Y-57404000D01*
X143347389Y-57404000D01*
X143134744Y-57361702D01*
X143028421Y-57340553D01*
X142727958Y-57216097D01*
X142457549Y-57035415D01*
X142227585Y-56805451D01*
X142046903Y-56535042D01*
X141922447Y-56234579D01*
X141859000Y-55915609D01*
X141859000Y-55590391D01*
X141922447Y-55271421D01*
X142046903Y-54970958D01*
X142227585Y-54700549D01*
X142457549Y-54470585D01*
X142727958Y-54289903D01*
X143028421Y-54165447D01*
X143134744Y-54144298D01*
X143347389Y-54102000D01*
X143672611Y-54102000D01*
X143885256Y-54144298D01*
G37*
G36*
X128645256Y-54144298D02*
G01*
X128751579Y-54165447D01*
X129052042Y-54289903D01*
X129322451Y-54470585D01*
X129552415Y-54700549D01*
X129733097Y-54970958D01*
X129857553Y-55271421D01*
X129921000Y-55590391D01*
X129921000Y-55915609D01*
X129857553Y-56234579D01*
X129733097Y-56535042D01*
X129552415Y-56805451D01*
X129322451Y-57035415D01*
X129052042Y-57216097D01*
X128751579Y-57340553D01*
X128645256Y-57361702D01*
X128432611Y-57404000D01*
X128107389Y-57404000D01*
X127894744Y-57361702D01*
X127788421Y-57340553D01*
X127487958Y-57216097D01*
X127217549Y-57035415D01*
X126987585Y-56805451D01*
X126806903Y-56535042D01*
X126682447Y-56234579D01*
X126619000Y-55915609D01*
X126619000Y-55590391D01*
X126682447Y-55271421D01*
X126806903Y-54970958D01*
X126987585Y-54700549D01*
X127217549Y-54470585D01*
X127487958Y-54289903D01*
X127788421Y-54165447D01*
X127894744Y-54144298D01*
X128107389Y-54102000D01*
X128432611Y-54102000D01*
X128645256Y-54144298D01*
G37*
G36*
X148965256Y-54144298D02*
G01*
X149071579Y-54165447D01*
X149372042Y-54289903D01*
X149642451Y-54470585D01*
X149872415Y-54700549D01*
X150053097Y-54970958D01*
X150177553Y-55271421D01*
X150241000Y-55590391D01*
X150241000Y-55915609D01*
X150177553Y-56234579D01*
X150053097Y-56535042D01*
X149872415Y-56805451D01*
X149642451Y-57035415D01*
X149372042Y-57216097D01*
X149071579Y-57340553D01*
X148965256Y-57361702D01*
X148752611Y-57404000D01*
X148427389Y-57404000D01*
X148214744Y-57361702D01*
X148108421Y-57340553D01*
X147807958Y-57216097D01*
X147537549Y-57035415D01*
X147307585Y-56805451D01*
X147126903Y-56535042D01*
X147002447Y-56234579D01*
X146939000Y-55915609D01*
X146939000Y-55590391D01*
X147002447Y-55271421D01*
X147126903Y-54970958D01*
X147307585Y-54700549D01*
X147537549Y-54470585D01*
X147807958Y-54289903D01*
X148108421Y-54165447D01*
X148214744Y-54144298D01*
X148427389Y-54102000D01*
X148752611Y-54102000D01*
X148965256Y-54144298D01*
G37*
G36*
X133725256Y-54144298D02*
G01*
X133831579Y-54165447D01*
X134132042Y-54289903D01*
X134402451Y-54470585D01*
X134632415Y-54700549D01*
X134813097Y-54970958D01*
X134937553Y-55271421D01*
X135001000Y-55590391D01*
X135001000Y-55915609D01*
X134937553Y-56234579D01*
X134813097Y-56535042D01*
X134632415Y-56805451D01*
X134402451Y-57035415D01*
X134132042Y-57216097D01*
X133831579Y-57340553D01*
X133725256Y-57361702D01*
X133512611Y-57404000D01*
X133187389Y-57404000D01*
X132974744Y-57361702D01*
X132868421Y-57340553D01*
X132567958Y-57216097D01*
X132297549Y-57035415D01*
X132067585Y-56805451D01*
X131886903Y-56535042D01*
X131762447Y-56234579D01*
X131699000Y-55915609D01*
X131699000Y-55590391D01*
X131762447Y-55271421D01*
X131886903Y-54970958D01*
X132067585Y-54700549D01*
X132297549Y-54470585D01*
X132567958Y-54289903D01*
X132868421Y-54165447D01*
X132974744Y-54144298D01*
X133187389Y-54102000D01*
X133512611Y-54102000D01*
X133725256Y-54144298D01*
G37*
G36*
X166745256Y-54144298D02*
G01*
X166851579Y-54165447D01*
X167152042Y-54289903D01*
X167422451Y-54470585D01*
X167652415Y-54700549D01*
X167833097Y-54970958D01*
X167957553Y-55271421D01*
X168021000Y-55590391D01*
X168021000Y-55915609D01*
X167957553Y-56234579D01*
X167833097Y-56535042D01*
X167652415Y-56805451D01*
X167422451Y-57035415D01*
X167152042Y-57216097D01*
X166851579Y-57340553D01*
X166745256Y-57361702D01*
X166532611Y-57404000D01*
X166207389Y-57404000D01*
X165994744Y-57361702D01*
X165888421Y-57340553D01*
X165587958Y-57216097D01*
X165317549Y-57035415D01*
X165087585Y-56805451D01*
X164906903Y-56535042D01*
X164782447Y-56234579D01*
X164719000Y-55915609D01*
X164719000Y-55590391D01*
X164782447Y-55271421D01*
X164906903Y-54970958D01*
X165087585Y-54700549D01*
X165317549Y-54470585D01*
X165587958Y-54289903D01*
X165888421Y-54165447D01*
X165994744Y-54144298D01*
X166207389Y-54102000D01*
X166532611Y-54102000D01*
X166745256Y-54144298D01*
G37*
G36*
X171825256Y-54144298D02*
G01*
X171931579Y-54165447D01*
X172232042Y-54289903D01*
X172502451Y-54470585D01*
X172732415Y-54700549D01*
X172913097Y-54970958D01*
X173037553Y-55271421D01*
X173101000Y-55590391D01*
X173101000Y-55915609D01*
X173037553Y-56234579D01*
X172913097Y-56535042D01*
X172732415Y-56805451D01*
X172502451Y-57035415D01*
X172232042Y-57216097D01*
X171931579Y-57340553D01*
X171825256Y-57361702D01*
X171612611Y-57404000D01*
X171287389Y-57404000D01*
X171074744Y-57361702D01*
X170968421Y-57340553D01*
X170667958Y-57216097D01*
X170397549Y-57035415D01*
X170167585Y-56805451D01*
X169986903Y-56535042D01*
X169862447Y-56234579D01*
X169799000Y-55915609D01*
X169799000Y-55590391D01*
X169862447Y-55271421D01*
X169986903Y-54970958D01*
X170167585Y-54700549D01*
X170397549Y-54470585D01*
X170667958Y-54289903D01*
X170968421Y-54165447D01*
X171074744Y-54144298D01*
X171287389Y-54102000D01*
X171612611Y-54102000D01*
X171825256Y-54144298D01*
G37*
G36*
X181985256Y-54144298D02*
G01*
X182091579Y-54165447D01*
X182392042Y-54289903D01*
X182662451Y-54470585D01*
X182892415Y-54700549D01*
X183073097Y-54970958D01*
X183197553Y-55271421D01*
X183261000Y-55590391D01*
X183261000Y-55915609D01*
X183197553Y-56234579D01*
X183073097Y-56535042D01*
X182892415Y-56805451D01*
X182662451Y-57035415D01*
X182392042Y-57216097D01*
X182091579Y-57340553D01*
X181985256Y-57361702D01*
X181772611Y-57404000D01*
X181447389Y-57404000D01*
X181234744Y-57361702D01*
X181128421Y-57340553D01*
X180827958Y-57216097D01*
X180557549Y-57035415D01*
X180327585Y-56805451D01*
X180146903Y-56535042D01*
X180022447Y-56234579D01*
X179959000Y-55915609D01*
X179959000Y-55590391D01*
X180022447Y-55271421D01*
X180146903Y-54970958D01*
X180327585Y-54700549D01*
X180557549Y-54470585D01*
X180827958Y-54289903D01*
X181128421Y-54165447D01*
X181234744Y-54144298D01*
X181447389Y-54102000D01*
X181772611Y-54102000D01*
X181985256Y-54144298D01*
G37*
G36*
X176905256Y-54144298D02*
G01*
X177011579Y-54165447D01*
X177312042Y-54289903D01*
X177582451Y-54470585D01*
X177812415Y-54700549D01*
X177993097Y-54970958D01*
X178117553Y-55271421D01*
X178181000Y-55590391D01*
X178181000Y-55915609D01*
X178117553Y-56234579D01*
X177993097Y-56535042D01*
X177812415Y-56805451D01*
X177582451Y-57035415D01*
X177312042Y-57216097D01*
X177011579Y-57340553D01*
X176905256Y-57361702D01*
X176692611Y-57404000D01*
X176367389Y-57404000D01*
X176154744Y-57361702D01*
X176048421Y-57340553D01*
X175747958Y-57216097D01*
X175477549Y-57035415D01*
X175247585Y-56805451D01*
X175066903Y-56535042D01*
X174942447Y-56234579D01*
X174879000Y-55915609D01*
X174879000Y-55590391D01*
X174942447Y-55271421D01*
X175066903Y-54970958D01*
X175247585Y-54700549D01*
X175477549Y-54470585D01*
X175747958Y-54289903D01*
X176048421Y-54165447D01*
X176154744Y-54144298D01*
X176367389Y-54102000D01*
X176692611Y-54102000D01*
X176905256Y-54144298D01*
G37*
G36*
X103245256Y-54144298D02*
G01*
X103351579Y-54165447D01*
X103652042Y-54289903D01*
X103922451Y-54470585D01*
X104152415Y-54700549D01*
X104333097Y-54970958D01*
X104457553Y-55271421D01*
X104521000Y-55590391D01*
X104521000Y-55915609D01*
X104457553Y-56234579D01*
X104333097Y-56535042D01*
X104152415Y-56805451D01*
X103922451Y-57035415D01*
X103652042Y-57216097D01*
X103351579Y-57340553D01*
X103245256Y-57361702D01*
X103032611Y-57404000D01*
X102707389Y-57404000D01*
X102494744Y-57361702D01*
X102388421Y-57340553D01*
X102087958Y-57216097D01*
X101817549Y-57035415D01*
X101587585Y-56805451D01*
X101406903Y-56535042D01*
X101282447Y-56234579D01*
X101219000Y-55915609D01*
X101219000Y-55590391D01*
X101282447Y-55271421D01*
X101406903Y-54970958D01*
X101587585Y-54700549D01*
X101817549Y-54470585D01*
X102087958Y-54289903D01*
X102388421Y-54165447D01*
X102494744Y-54144298D01*
X102707389Y-54102000D01*
X103032611Y-54102000D01*
X103245256Y-54144298D01*
G37*
G36*
X108325256Y-54144298D02*
G01*
X108431579Y-54165447D01*
X108732042Y-54289903D01*
X109002451Y-54470585D01*
X109232415Y-54700549D01*
X109413097Y-54970958D01*
X109537553Y-55271421D01*
X109601000Y-55590391D01*
X109601000Y-55915609D01*
X109537553Y-56234579D01*
X109413097Y-56535042D01*
X109232415Y-56805451D01*
X109002451Y-57035415D01*
X108732042Y-57216097D01*
X108431579Y-57340553D01*
X108325256Y-57361702D01*
X108112611Y-57404000D01*
X107787389Y-57404000D01*
X107574744Y-57361702D01*
X107468421Y-57340553D01*
X107167958Y-57216097D01*
X106897549Y-57035415D01*
X106667585Y-56805451D01*
X106486903Y-56535042D01*
X106362447Y-56234579D01*
X106299000Y-55915609D01*
X106299000Y-55590391D01*
X106362447Y-55271421D01*
X106486903Y-54970958D01*
X106667585Y-54700549D01*
X106897549Y-54470585D01*
X107167958Y-54289903D01*
X107468421Y-54165447D01*
X107574744Y-54144298D01*
X107787389Y-54102000D01*
X108112611Y-54102000D01*
X108325256Y-54144298D01*
G37*
G36*
X113405256Y-54144298D02*
G01*
X113511579Y-54165447D01*
X113812042Y-54289903D01*
X114082451Y-54470585D01*
X114312415Y-54700549D01*
X114493097Y-54970958D01*
X114617553Y-55271421D01*
X114681000Y-55590391D01*
X114681000Y-55915609D01*
X114617553Y-56234579D01*
X114493097Y-56535042D01*
X114312415Y-56805451D01*
X114082451Y-57035415D01*
X113812042Y-57216097D01*
X113511579Y-57340553D01*
X113405256Y-57361702D01*
X113192611Y-57404000D01*
X112867389Y-57404000D01*
X112654744Y-57361702D01*
X112548421Y-57340553D01*
X112247958Y-57216097D01*
X111977549Y-57035415D01*
X111747585Y-56805451D01*
X111566903Y-56535042D01*
X111442447Y-56234579D01*
X111379000Y-55915609D01*
X111379000Y-55590391D01*
X111442447Y-55271421D01*
X111566903Y-54970958D01*
X111747585Y-54700549D01*
X111977549Y-54470585D01*
X112247958Y-54289903D01*
X112548421Y-54165447D01*
X112654744Y-54144298D01*
X112867389Y-54102000D01*
X113192611Y-54102000D01*
X113405256Y-54144298D01*
G37*
G36*
X118485256Y-54144298D02*
G01*
X118591579Y-54165447D01*
X118892042Y-54289903D01*
X119162451Y-54470585D01*
X119392415Y-54700549D01*
X119573097Y-54970958D01*
X119697553Y-55271421D01*
X119761000Y-55590391D01*
X119761000Y-55915609D01*
X119697553Y-56234579D01*
X119573097Y-56535042D01*
X119392415Y-56805451D01*
X119162451Y-57035415D01*
X118892042Y-57216097D01*
X118591579Y-57340553D01*
X118485256Y-57361702D01*
X118272611Y-57404000D01*
X117947389Y-57404000D01*
X117734744Y-57361702D01*
X117628421Y-57340553D01*
X117327958Y-57216097D01*
X117057549Y-57035415D01*
X116827585Y-56805451D01*
X116646903Y-56535042D01*
X116522447Y-56234579D01*
X116459000Y-55915609D01*
X116459000Y-55590391D01*
X116522447Y-55271421D01*
X116646903Y-54970958D01*
X116827585Y-54700549D01*
X117057549Y-54470585D01*
X117327958Y-54289903D01*
X117628421Y-54165447D01*
X117734744Y-54144298D01*
X117947389Y-54102000D01*
X118272611Y-54102000D01*
X118485256Y-54144298D01*
G37*
G36*
X159125256Y-54144298D02*
G01*
X159231579Y-54165447D01*
X159532042Y-54289903D01*
X159802451Y-54470585D01*
X160032415Y-54700549D01*
X160213097Y-54970958D01*
X160337553Y-55271421D01*
X160401000Y-55590391D01*
X160401000Y-55915609D01*
X160337553Y-56234579D01*
X160213097Y-56535042D01*
X160032415Y-56805451D01*
X159802451Y-57035415D01*
X159532042Y-57216097D01*
X159231579Y-57340553D01*
X159125256Y-57361702D01*
X158912611Y-57404000D01*
X158587389Y-57404000D01*
X158374744Y-57361702D01*
X158268421Y-57340553D01*
X157967958Y-57216097D01*
X157697549Y-57035415D01*
X157467585Y-56805451D01*
X157286903Y-56535042D01*
X157162447Y-56234579D01*
X157099000Y-55915609D01*
X157099000Y-55590391D01*
X157162447Y-55271421D01*
X157286903Y-54970958D01*
X157467585Y-54700549D01*
X157697549Y-54470585D01*
X157967958Y-54289903D01*
X158268421Y-54165447D01*
X158374744Y-54144298D01*
X158587389Y-54102000D01*
X158912611Y-54102000D01*
X159125256Y-54144298D01*
G37*
G36*
X123565256Y-54144298D02*
G01*
X123671579Y-54165447D01*
X123972042Y-54289903D01*
X124242451Y-54470585D01*
X124472415Y-54700549D01*
X124653097Y-54970958D01*
X124777553Y-55271421D01*
X124841000Y-55590391D01*
X124841000Y-55915609D01*
X124777553Y-56234579D01*
X124653097Y-56535042D01*
X124472415Y-56805451D01*
X124242451Y-57035415D01*
X123972042Y-57216097D01*
X123671579Y-57340553D01*
X123565256Y-57361702D01*
X123352611Y-57404000D01*
X123027389Y-57404000D01*
X122814744Y-57361702D01*
X122708421Y-57340553D01*
X122407958Y-57216097D01*
X122137549Y-57035415D01*
X121907585Y-56805451D01*
X121726903Y-56535042D01*
X121602447Y-56234579D01*
X121539000Y-55915609D01*
X121539000Y-55590391D01*
X121602447Y-55271421D01*
X121726903Y-54970958D01*
X121907585Y-54700549D01*
X122137549Y-54470585D01*
X122407958Y-54289903D01*
X122708421Y-54165447D01*
X122814744Y-54144298D01*
X123027389Y-54102000D01*
X123352611Y-54102000D01*
X123565256Y-54144298D01*
G37*
G36*
X195955256Y-54144298D02*
G01*
X196061579Y-54165447D01*
X196362042Y-54289903D01*
X196632451Y-54470585D01*
X196862415Y-54700549D01*
X197043097Y-54970958D01*
X197167553Y-55271421D01*
X197231000Y-55590391D01*
X197231000Y-55915609D01*
X197167553Y-56234579D01*
X197043097Y-56535042D01*
X196862415Y-56805451D01*
X196632451Y-57035415D01*
X196362042Y-57216097D01*
X196061579Y-57340553D01*
X195955256Y-57361702D01*
X195742611Y-57404000D01*
X195417389Y-57404000D01*
X195204744Y-57361702D01*
X195098421Y-57340553D01*
X194797958Y-57216097D01*
X194527549Y-57035415D01*
X194297585Y-56805451D01*
X194116903Y-56535042D01*
X193992447Y-56234579D01*
X193929000Y-55915609D01*
X193929000Y-55590391D01*
X193992447Y-55271421D01*
X194116903Y-54970958D01*
X194297585Y-54700549D01*
X194527549Y-54470585D01*
X194797958Y-54289903D01*
X195098421Y-54165447D01*
X195204744Y-54144298D01*
X195417389Y-54102000D01*
X195742611Y-54102000D01*
X195955256Y-54144298D01*
G37*
G36*
X206115256Y-54144298D02*
G01*
X206221579Y-54165447D01*
X206522042Y-54289903D01*
X206792451Y-54470585D01*
X207022415Y-54700549D01*
X207203097Y-54970958D01*
X207327553Y-55271421D01*
X207391000Y-55590391D01*
X207391000Y-55915609D01*
X207327553Y-56234579D01*
X207203097Y-56535042D01*
X207022415Y-56805451D01*
X206792451Y-57035415D01*
X206522042Y-57216097D01*
X206221579Y-57340553D01*
X206115256Y-57361702D01*
X205902611Y-57404000D01*
X205577389Y-57404000D01*
X205364744Y-57361702D01*
X205258421Y-57340553D01*
X204957958Y-57216097D01*
X204687549Y-57035415D01*
X204457585Y-56805451D01*
X204276903Y-56535042D01*
X204152447Y-56234579D01*
X204089000Y-55915609D01*
X204089000Y-55590391D01*
X204152447Y-55271421D01*
X204276903Y-54970958D01*
X204457585Y-54700549D01*
X204687549Y-54470585D01*
X204957958Y-54289903D01*
X205258421Y-54165447D01*
X205364744Y-54144298D01*
X205577389Y-54102000D01*
X205902611Y-54102000D01*
X206115256Y-54144298D01*
G37*
G36*
X154045256Y-54144298D02*
G01*
X154151579Y-54165447D01*
X154452042Y-54289903D01*
X154722451Y-54470585D01*
X154952415Y-54700549D01*
X155133097Y-54970958D01*
X155257553Y-55271421D01*
X155321000Y-55590391D01*
X155321000Y-55915609D01*
X155257553Y-56234579D01*
X155133097Y-56535042D01*
X154952415Y-56805451D01*
X154722451Y-57035415D01*
X154452042Y-57216097D01*
X154151579Y-57340553D01*
X154045256Y-57361702D01*
X153832611Y-57404000D01*
X153507389Y-57404000D01*
X153294744Y-57361702D01*
X153188421Y-57340553D01*
X152887958Y-57216097D01*
X152617549Y-57035415D01*
X152387585Y-56805451D01*
X152206903Y-56535042D01*
X152082447Y-56234579D01*
X152019000Y-55915609D01*
X152019000Y-55590391D01*
X152082447Y-55271421D01*
X152206903Y-54970958D01*
X152387585Y-54700549D01*
X152617549Y-54470585D01*
X152887958Y-54289903D01*
X153188421Y-54165447D01*
X153294744Y-54144298D01*
X153507389Y-54102000D01*
X153832611Y-54102000D01*
X154045256Y-54144298D01*
G37*
G36*
X190875256Y-54144298D02*
G01*
X190981579Y-54165447D01*
X191282042Y-54289903D01*
X191552451Y-54470585D01*
X191782415Y-54700549D01*
X191963097Y-54970958D01*
X192087553Y-55271421D01*
X192151000Y-55590391D01*
X192151000Y-55915609D01*
X192087553Y-56234579D01*
X191963097Y-56535042D01*
X191782415Y-56805451D01*
X191552451Y-57035415D01*
X191282042Y-57216097D01*
X190981579Y-57340553D01*
X190875256Y-57361702D01*
X190662611Y-57404000D01*
X190337389Y-57404000D01*
X190124744Y-57361702D01*
X190018421Y-57340553D01*
X189717958Y-57216097D01*
X189447549Y-57035415D01*
X189217585Y-56805451D01*
X189036903Y-56535042D01*
X188912447Y-56234579D01*
X188849000Y-55915609D01*
X188849000Y-55590391D01*
X188912447Y-55271421D01*
X189036903Y-54970958D01*
X189217585Y-54700549D01*
X189447549Y-54470585D01*
X189717958Y-54289903D01*
X190018421Y-54165447D01*
X190124744Y-54144298D01*
X190337389Y-54102000D01*
X190662611Y-54102000D01*
X190875256Y-54144298D01*
G37*
G36*
X138805256Y-54144298D02*
G01*
X138911579Y-54165447D01*
X139212042Y-54289903D01*
X139482451Y-54470585D01*
X139712415Y-54700549D01*
X139893097Y-54970958D01*
X140017553Y-55271421D01*
X140081000Y-55590391D01*
X140081000Y-55915609D01*
X140017553Y-56234579D01*
X139893097Y-56535042D01*
X139712415Y-56805451D01*
X139482451Y-57035415D01*
X139212042Y-57216097D01*
X138911579Y-57340553D01*
X138805256Y-57361702D01*
X138592611Y-57404000D01*
X138267389Y-57404000D01*
X138054744Y-57361702D01*
X137948421Y-57340553D01*
X137647958Y-57216097D01*
X137377549Y-57035415D01*
X137147585Y-56805451D01*
X136966903Y-56535042D01*
X136842447Y-56234579D01*
X136779000Y-55915609D01*
X136779000Y-55590391D01*
X136842447Y-55271421D01*
X136966903Y-54970958D01*
X137147585Y-54700549D01*
X137377549Y-54470585D01*
X137647958Y-54289903D01*
X137948421Y-54165447D01*
X138054744Y-54144298D01*
X138267389Y-54102000D01*
X138592611Y-54102000D01*
X138805256Y-54144298D01*
G37*
G36*
X215531000Y-56781000D02*
G01*
X213729000Y-56781000D01*
X213729000Y-54979000D01*
X215531000Y-54979000D01*
X215531000Y-56781000D01*
G37*
G36*
X238391000Y-56781000D02*
G01*
X236589000Y-56781000D01*
X236589000Y-54979000D01*
X238391000Y-54979000D01*
X238391000Y-56781000D01*
G37*
M02*
