M48
; DRILL file {KiCad (5.1.5)-3} date 1.7.2020. 12:57:22
; FORMAT={-:-/ absolute / inch / decimal}
; #@! TF.CreationDate,2020-07-01T12:57:22+02:00
; #@! TF.GenerationSoftware,Kicad,Pcbnew,(5.1.5)-3
; #@! TF.FileFunction,Plated,1,2,PTH
FMAT,2
INCH
T1C0.0157
T2C0.0315
T3C0.0394
T4C0.0472
T5C0.0512
T6C0.0591
T7C0.0630
T8C0.1339
%
G90
G05
T1
X3.7Y-3.85
X3.7Y-4.025
X3.7869Y-4.45
X3.805Y-3.26
X3.805Y-3.355
X3.85Y-4.55
X3.86Y-3.1
X3.86Y-3.2
X3.86Y-3.31
X3.905Y-3.395
X3.91Y-4.45
X3.925Y-4.55
X3.94Y-3.43
X3.95Y-4.005
X3.9581Y-3.61
X3.9581Y-3.745
X3.96Y-2.75
X3.985Y-4.295
X3.9885Y-4.4515
X4.0Y-4.6
X4.0Y-4.64
X4.0Y-4.68
X4.0Y-4.72
X4.0Y-4.76
X4.0369Y-2.75
X4.0381Y-3.15
X4.04Y-3.0
X4.0551Y-2.6
X4.1381Y-4.3
X4.1381Y-4.45
X4.1381Y-4.7619
X4.14Y-3.45
X4.19Y-3.495
X4.21Y-4.45
X4.24Y-3.54
X4.3012Y-4.45
X4.325Y-3.055
X4.365Y-3.26
X4.37Y-3.125
X4.375Y-2.905
X4.415Y-2.87
X4.45Y-3.055
X4.47Y-2.75
X4.55Y-4.3
X4.55Y-4.45
X4.65Y-3.71
X4.65Y-4.07
X4.66Y-3.0
X4.6631Y-3.15
X4.7Y-3.71
X4.74Y-4.3
X4.74Y-4.45
X4.76Y-3.71
X4.805Y-3.71
X4.805Y-4.155
X4.855Y-3.845
X4.855Y-4.155
X4.865Y-2.75
X4.89Y-3.0
X4.91Y-3.9
X4.91Y-4.155
X4.925Y-3.71
X4.9369Y-2.75
X4.955Y-4.0768
X4.9551Y-2.6
X4.9619Y-3.15
X5.045Y-3.45
X5.0881Y-4.45
X5.1Y-3.495
X5.11Y-3.85
X5.11Y-3.905
X5.11Y-3.96
X5.145Y-3.535
X5.1619Y-4.45
X5.1625Y-4.7775
X5.175Y-3.055
X5.2Y-3.125
X5.205Y-2.9
X5.245Y-2.865
X5.28Y-4.61
X5.28Y-4.65
X5.3Y-3.05
X5.3131Y-4.4519
X5.365Y-2.75
X5.3869Y-4.45
X5.39Y-4.3
X5.45Y-3.0
X5.4512Y-3.15
X5.4593Y-4.6137
X5.4593Y-4.6467
X5.46Y-4.98
X5.48Y-3.64
X5.5Y-3.86
X5.505Y-4.205
X5.505Y-4.325
X5.5121Y-4.4497
X5.55Y-4.19
X5.56Y-3.86
X5.56Y-4.14
X5.58Y-3.625
X5.59Y-4.45
X5.6093Y-4.6107
X5.6093Y-4.6507
X5.6093Y-4.6852
X5.61Y-4.72
X5.61Y-4.76
X5.63Y-3.89
X5.64Y-3.63
X5.645Y-3.695
X5.7369Y-3.15
X5.74Y-3.0
X5.75Y-4.37
X5.76Y-2.75
X5.8Y-4.78
X5.81Y-3.85
X5.8369Y-2.75
X5.8551Y-2.6
X5.87Y-3.935
X5.935Y-3.9
X5.95Y-3.055
X5.97Y-3.115
X5.98Y-2.89
X6.02Y-2.855
X6.05Y-3.74
X6.075Y-3.055
X6.09Y-3.4
X6.09Y-3.4
X6.145Y-3.445
X6.2631Y-3.175
X6.265Y-3.0
X6.275Y-2.755
X6.28Y-3.75
X6.28Y-3.9373
X6.375Y-3.42
X6.43Y-3.3632
X6.45Y-4.01
X6.455Y-3.525
X6.49Y-3.33
X6.515Y-3.0
X6.525Y-3.275
X6.525Y-3.455
X6.575Y-3.2
X6.58Y-3.84
X6.585Y-4.38
X6.6Y-2.58
X6.625Y-3.8
X6.65Y-2.825
X6.65Y-3.2
X6.695Y-3.34
X6.695Y-3.395
X6.7Y-2.58
X6.71Y-4.505
X6.7406Y-2.824
X6.75Y-3.7131
X6.77Y-3.585
X6.785Y-3.0
X6.8Y-4.1432
X6.815Y-3.645
X6.845Y-4.065
X6.88Y-2.46
X6.88Y-4.11
X6.88Y-4.155
X6.935Y-4.25
X7.035Y-3.175
X7.1224Y-3.925
X7.16Y-3.575
X7.16Y-4.3
X7.21Y-3.175
X7.285Y-3.175
X7.305Y-3.0
X7.41Y-3.65
X7.41Y-3.8
X7.41Y-3.95
X7.46Y-3.18
X7.46Y-3.385
X7.46Y-4.005
X7.46Y-4.055
X7.46Y-4.11
X7.4631Y-3.05
X7.535Y-3.385
X7.555Y-4.005
X7.555Y-4.055
X7.555Y-4.11
X7.63Y-3.63
X7.63Y-3.9
X7.66Y-3.15
X7.66Y-4.725
X7.67Y-5.63
X7.67Y-5.76
X7.73Y-5.13
X7.8Y-3.63
X7.8Y-3.9
X7.8Y-5.63
X7.8Y-5.76
X7.92Y-5.63
X7.92Y-5.76
X7.97Y-3.63
X7.97Y-3.9
X8.125Y-3.57
X8.125Y-3.64
X8.31Y-3.375
X8.31Y-3.575
X8.315Y-3.15
X8.425Y-3.775
X8.4988Y-3.775
X8.57Y-4.43
X8.61Y-4.16
X8.705Y-3.5
X8.8Y-2.455
X8.8026Y-3.55
X8.825Y-2.66
X8.83Y-3.07
X8.945Y-3.07
X8.99Y-2.42
X9.025Y-2.72
X9.05Y-5.44
X9.08Y-3.065
X9.1119Y-5.57
X9.13Y-2.55
X9.17Y-5.175
X9.31Y-5.74
X9.3262Y-4.82
X9.4Y-4.82
X9.56Y-2.36
X9.56Y-5.05
X9.65Y-5.04
X9.65Y-5.2369
X9.685Y-3.11
T2
X9.15Y-4.3
X9.15Y-4.4378
T3
X3.675Y-3.15
X3.675Y-3.25
X3.675Y-3.35
X3.675Y-3.45
X3.675Y-3.55
X8.45Y-2.2
X8.45Y-2.3
X8.45Y-2.4
X8.45Y-2.5
X8.45Y-2.6
X8.45Y-2.7
X8.45Y-2.8
X8.45Y-2.9
X9.35Y-2.2
X9.35Y-2.3
X9.35Y-2.4
X9.35Y-2.5
X9.35Y-2.6
X9.35Y-2.7
X9.35Y-2.8
X9.35Y-2.9
X8.55Y-4.8
X8.55Y-4.9969
T4
X7.0Y-4.95
X7.0Y-5.1469
X4.5047Y-4.95
X4.8Y-4.95
X6.3Y-4.9
X6.3Y-5.1953
X7.0Y-4.35
X7.0Y-4.5469
T5
X5.7907Y-5.775
X6.1844Y-5.775
X6.4797Y-5.775
X6.775Y-5.775
T6
X4.35Y-5.705
X4.55Y-5.705
X4.75Y-5.705
X4.95Y-5.705
X4.05Y-2.195
X4.25Y-2.195
X4.45Y-2.195
X4.65Y-2.195
X4.85Y-2.195
X5.05Y-2.195
X5.25Y-2.195
X5.45Y-2.195
X5.65Y-2.195
X5.85Y-2.195
X6.05Y-2.195
X6.25Y-2.195
X7.5Y-2.195
X7.7Y-2.195
X7.9Y-2.195
X8.1Y-2.195
X6.55Y-2.195
X6.75Y-2.195
X6.95Y-2.195
X7.15Y-2.195
X9.605Y-3.3
X9.605Y-3.5
X9.605Y-3.7
X9.605Y-3.9
X7.15Y-5.705
X7.35Y-5.705
T7
X7.6Y-4.55
X8.1Y-4.55
X7.6Y-4.9
X8.1Y-4.9
T8
X3.7402Y-5.7087
X3.7402Y-2.1654
X9.6457Y-5.7087
X9.6457Y-2.1654
T0
M30
